<?xml version="1.0" encoding="UTF-8" standalone="no"?>
<!-- Created with Inkscape (http://www.inkscape.org/) -->

<svg
   version="1.1"
   id="svg162"
   width="822"
   height="822"
   viewBox="0 0 822 822"
   sodipodi:docname="timmy.svg"
   inkscape:version="1.2 (dc2aeda, 2022-05-15)"
   xmlns:inkscape="http://www.inkscape.org/namespaces/inkscape"
   xmlns:sodipodi="http://sodipodi.sourceforge.net/DTD/sodipodi-0.dtd"
   xmlns="http://www.w3.org/2000/svg"
   xmlns:svg="http://www.w3.org/2000/svg">
  <defs
     id="defs166" />
  <sodipodi:namedview
     id="namedview164"
     pagecolor="#ffffff"
     bordercolor="#666666"
     borderopacity="1.0"
     inkscape:showpageshadow="2"
     inkscape:pageopacity="0.0"
     inkscape:pagecheckerboard="0"
     inkscape:deskcolor="#d1d1d1"
     showgrid="false"
     inkscape:zoom="0.6946472"
     inkscape:cx="760.09807"
     inkscape:cy="395.88441"
     inkscape:window-width="2560"
     inkscape:window-height="1346"
     inkscape:window-x="0"
     inkscape:window-y="27"
     inkscape:window-maximized="1"
     inkscape:current-layer="g168" />
  <g
     inkscape:groupmode="layer"
     inkscape:label="Image"
     id="g168">
    <path
       style="fill:#fcdea5;fill-opacity:1;stroke:#000000;stroke-width:1px;stroke-linecap:butt;stroke-linejoin:miter;stroke-opacity:1"
       d="m 146.85748,739.4113 -54.63121,-26.64106 -26.00658,-75.99905 10.59538,-78.6361 27.81731,-64.62331 -36.10246,-26.04095 -18.19077,-32.72202 1.04453,-34.85116 19.65356,-15.04289 36.93599,-7.18626 22.73259,-98.88448 66.87276,-113.46073 80.4107,-65.650004 115.7356,-33.509056 137.302,20.393182 79.3533,48.596868 41.4404,48.27175 20.4752,32.04549 35.2463,31.10478 30.3436,36.02796 22.9526,74.54776 -1.018,45.82759 15.9093,32.93531 -17.0796,51.29956 -59.7727,53.98934 13.7351,28.85022 14.035,62.242 -17.0297,65.36259 -24.7436,33.49051 -59.7159,10.83211 -43.8059,-7.71952 -18.9263,-45.09725 -6.7773,-40.81202 -58.1422,11.55641 -33.0942,4.68161 6.9757,64.63947 -13.3058,30.54903 -33.4193,15.56106 -59.0395,-9.611 -45.1489,-40.61408 -20.6062,-66.62452 -64.9003,-23.98507 -11.7544,15.0739 -13.887,42.75818 -12.5378,29.6571 -29.4048,16.42529 z"
       id="path5155" />
    <path
       style="fill:#000000;fill-opacity:0.225387;stroke:none;stroke-width:1px;stroke-linecap:butt;stroke-linejoin:miter;stroke-opacity:1"
       d="m 145.56871,500.95708 14.28257,54.91591 47.6851,58.49883 89.0731,42.55828 169.1972,11.22703 100.5632,-29.84466 56.1894,-50.39354 14.9729,-26.051 -106.0985,16.23797 -119.2377,-16.10051 -71.6618,-45.14845 -14.9561,-22.63357 -96.8411,12.38988 z"
       id="path11485" />
    <path
       id="path559"
       style="fill:#b9cc8a;fill-opacity:1;stroke:none;stroke-width:1px;stroke-linecap:butt;stroke-linejoin:miter;stroke-opacity:1"
       d="m 568.07138,226.73803 c -93.2353,-0.75219 -109.9758,45.57709 -140.1074,37.20313 -31.1035,-8.64411 -38.2767,19.99184 -48.8184,21.50781 -10.5417,1.51597 -19.5636,-11.25343 -39.1425,8.32617 -19.579,19.5796 -29.6934,114.71875 -29.6934,114.71875 l 12.6211,77.25586 15.8887,26.37109 11.9394,8.79102 c -16.3398,3.77675 -20.7387,27.89862 -27.9043,43.42969 -10.8791,23.57997 -20.2216,48.94194 -21.5039,74.8789 -1.1885,24.04042 3.1168,49.07884 12.9883,71.03125 8.0112,17.81543 18.2017,8.26788 32.75,7.3125 3.8322,-16.53467 25.1446,-8.95796 30.9024,1.02149 9.3967,-0.64071 24.7465,1.32903 34.1035,5.50976 15.3639,-18.58113 25.2455,-3.05306 29.0586,4.23242 28.8379,8.40889 35.978,-1.18801 33.6953,-6.84375 -0.912,-23.24717 -6.4296,-46.23761 -12.8145,-68.60937 -4.8832,-17.10997 -16.3861,-32.19923 -19.3711,-49.74024 -2.1261,-12.49396 8.6768,-27.77675 1.5196,-38.06835 l 86.371,14.28515 109.3184,-21.55664 -6.6211,2.4043 -9.5996,24.25 -23.9551,26.60156 -47.2265,32.59961 14.5996,55.19922 c 0,0 23.293,-4.55287 33.8867,-5.52735 4.2502,-15.89979 29.8875,-18.43414 29.4883,-0.64257 31.3825,2.29942 78.6898,-3.78078 91.3496,-38.75782 l -5.0313,-77.29492 -13.873,-41.71289 -15.6699,5.68945 62.8965,-42.39453 22.5898,-53.14453 -11.1406,-37.10547 -5.2676,-57.52343 c 0,0 -14.7295,-62.79294 -26.0781,-74.26368 -45.0825,-15.90124 -51.4491,-45.18955 -152.8828,-49.21093 -3.1699,-0.12567 -6.2581,-0.1984 -9.2657,-0.22266 z M 121.79992,492.14819 c -9.12379,-0.30126 -18.29089,1.79733 -22.9082,7.16601 -19.74201,34.34326 -42.2648,85.75622 -36.0332,125.59961 -1.08974,26.16314 -3.72433,27.91444 6.30078,46.57422 8.97685,1.45729 42.10723,10.05342 52.00195,10.44531 0.58969,-5.47 20.28293,-14.13741 29.41793,6.11328 12.0387,0.69373 51.7524,12.57642 61.3575,9.16797 4.276,-35.65118 17.3574,-67.7366 14.9375,-73.04101 -29.3171,-24.26553 -56.6559,-44.24455 -69.8496,-78.23242 -5.3172,-13.75802 -6.7605,-31.06934 -10.00786,-42.57813 -1.82664,-6.47369 -13.4862,-10.82752 -25.2168,-11.21484 z m 235.58206,33.64062 16.0586,11.82422 c -7.182,-4.52138 -12.3092,-8.57122 -16.0586,-11.82422 z" />
    <ellipse
       style="fill:#ffffff;fill-opacity:1;stroke-width:3.17716;stroke-linecap:round;stroke-linejoin:bevel"
       id="ellipse2506"
       cx="706.50549"
       cy="361.19299"
       rx="21.683561"
       ry="20.310713" />
    <ellipse
       style="fill:#ffffff;fill-opacity:1;stroke-width:3.85711;stroke-linecap:round;stroke-linejoin:bevel"
       id="path1793"
       cx="489.52698"
       cy="372.24741"
       rx="26.324102"
       ry="24.657448" />
    <path
       id="path12260"
       style="fill:#89b790;fill-opacity:1;stroke:none;stroke-width:1px;stroke-linecap:butt;stroke-linejoin:miter;stroke-opacity:1"
       d="m 435.74718,69.859128 -90.0625,9.68164 -87.4844,35.882812 -69.9863,63.72461 -32.3555,55.54101 12.7325,28.63867 18.4921,8.20313 27.2461,-0.7207 34.7891,-17.92774 17.5625,-19.91992 14.7383,-28.9082 4.1289,-36.64844 -8.1504,-16.91797 -15.4551,-4.71484 14.2754,-13.81055 41.1777,-17.50195 29.2657,-7.90234 -1.4395,12.33788 8.4473,14.65235 24.6328,6.21679 50.9844,1.76758 56.1445,-9.8164 11.6113,-12.45508 0.959,-11.58789 27.5742,8.9707 18.4063,12.51953 -16.4102,3.89258 -15.3203,13.92383 -2.5,17.92187 -12.0312,-9.95898 -32.3399,-4.21875 -37.1074,12.2832 -25.2344,20.12891 -11.2949,25.55664 -4.6895,34.41406 32.9844,-23.64258 87.9199,-26.82812 78.3145,-2.44336 62.1895,17.84375 12.3671,-1.93555 -33.0683,-56.11914 -56.5664,-45.0039 -61.2989,-21.595705 z m -84.8086,76.541012 -23.8711,3.59766 -14.8242,9.66796 -9.125,26.00977 -7.3945,38.61914 -1.0039,32.57422 8.1347,10.47656 21.0508,4.37305 19.5664,-11.35742 13.375,-19.38868 13.5352,-30.625 4.8633,-31.83593 -5.7071,-17.04883 z m -180.793,141.65039 -19.123,1.6543 -27.4707,15.64453 -17.6211,69.80859 17.69141,19.8711 26.51759,10.9375 12.2051,-38.67969 18.1914,-37.27149 1.4394,-26.80273 z m 119.7422,14.91797 -38.7871,2.0039 -34.4668,14.23243 -32.1425,39.1289 -17.2969,54.96094 32.3379,9.06641 60.3222,3.82617 48.8789,-1.22852 13.1075,-85.17187 -8.9395,-26.04688 z" />
    <path
       style="fill:#000000"
       d="m 396.44058,780.47961 c -22.2098,-2.85501 -29.0393,-4.6657 -42.2054,-11.18977 -12.6943,-6.29027 -26.7321,-19.07836 -35.987,-32.78319 -11.2524,-16.66279 -20.7292,-43.41188 -23.8062,-67.19443 l -0.6073,-4.69443 -5.6971,-1.57389 c -13.586,-3.75334 -23.5008,-7.19008 -35.1378,-12.17985 l -12.4409,-5.3344 -4.295,4.61219 c -4.1163,4.42016 -8.5632,12.39577 -10.5003,18.83228 -0.502,1.66789 -2.932,10.86831 -5.4001,20.44538 -5.8103,22.54606 -10.2802,31.8973 -19.9229,41.67991 -8.591,8.71561 -18.2847,13.81568 -29.5,15.52065 -9.3584,1.42268 -33.18337,0.54151 -41.67735,-1.54144 -14.55112,-3.56833 -27.95977,-11.20302 -39.04116,-22.22946 -22.10592,-21.99633 -33.3005,-53.97266 -33.27081,-95.03514 0.0292,-40.36251 7.01928,-68.15915 27.21639,-108.22792 7.20579,-14.29547 7.7729,-15.87336 7.7729,-21.62679 v -6.20625 l -9.75,-5.76918 C 68.32859,477.78159 54.05316,463.33662 48.118,451.50665 c -5.20573,-10.37605 -7.10621,-17.99808 -7.10621,-28.5 0,-25.39089 13.91141,-42.33872 38.68504,-47.12877 4.25904,-0.8235 10.09715,-1.94893 12.97357,-2.50097 6.11226,-1.17304 5.91741,-0.7467 9.30983,-20.37026 5.05829,-29.25989 12.13033,-54.77922 23.41705,-84.5 8.07078,-21.25239 28.3364,-59.45932 40.6811,-76.69655 39.651,-55.36539 87.6604,-91.7859 149.3622,-113.307852 33.2745,-11.60638 72.7141,-18.611872 106.5,-18.917182 35.672,-0.322354 76.4668,7.151078 111.4176,20.41124 58.9897,22.380394 111.6379,67.149834 143.0269,121.623084 2.5521,4.42905 5.6671,8.05698 9.433,10.98631 24.575,19.1161 43.6608,41.71053 57.8621,68.49899 18.0691,34.0845 25.7661,63.97357 26.8854,104.40196 l 0.5398,19.5 3.3094,7 c 6.723,14.22021 9.4407,29.36711 7.5304,41.96932 -3.085,20.35219 -12.4032,37.45395 -30.9715,56.84221 -9.1686,9.57346 -24.1172,21.72321 -33.4739,27.20665 -2.5076,1.46953 -4.5592,3.13799 -4.5592,3.7077 0,0.56971 1.979,5.58945 4.3979,11.15498 7.2733,16.73535 10.8941,28.00165 14.3396,44.61914 2.5351,12.2263 2.493,51.28497 -0.071,65.5 -4.409,24.44777 -15.5568,46.41066 -31.9389,62.92465 -19.084,19.23764 -39.6864,25.69571 -77.2279,24.20801 -29.9379,-1.18639 -43.2975,-8.06168 -54.449,-28.02125 -3.7825,-6.77014 -7.0724,-16.68982 -10.1524,-30.61141 -3.7191,-16.81048 -5.3349,-21.96009 -9.2037,-29.33163 -3.5065,-6.68129 -2.6774,-6.59112 -15.6949,-1.70684 -13.8711,5.20454 -26.4241,8.86685 -42.1655,12.30177 -11.1122,2.42475 -14.8284,3.61298 -14.8142,4.7367 0.01,0.825 0.6829,5.1 1.4944,9.5 6.5591,35.56534 5.6498,58.12489 -2.9331,72.77053 -5.9743,10.19427 -14.8209,16.44324 -27.3267,19.30265 -8.077,1.84677 -40.353,2.73692 -50.7549,1.39978 z m 43.5,-21.96973 c 11.3342,-2.57522 16.0255,-6.65953 19.5304,-17.00323 1.5151,-4.47152 1.9086,-9.05294 2.1041,-24.5 0.1322,-10.45 -0.1838,-21.925 -0.7023,-25.5 -0.5185,-3.575 -1.4169,-9.875 -1.9965,-14 -2.5268,-17.98372 -8.6271,-44.28209 -13.454,-58 -4.5431,-12.91141 -4.7784,-13.78446 -4.1539,-15.41198 0.8652,-2.25454 5.2922,-1.96861 6.9872,0.4513 1.7705,2.52781 8.8265,18.55493 11.4293,25.96068 4.1362,11.76905 5.4326,15.67449 6.7563,20.35344 0.7551,2.66939 1.5883,5.06878 1.8514,5.33196 0.6889,0.68886 22.1032,-3.39479 36.148,-6.89331 47.1619,-11.74793 84.7959,-32.26132 107.537,-58.61595 5.7436,-6.65613 11.4028,-15.06969 10.6456,-15.82684 -0.2461,-0.24613 -3.5379,0.27204 -7.3151,1.15149 -32.9504,7.67198 -54.3541,10.45782 -86.1667,11.21519 -37.0518,0.88211 -68.7079,-1.92264 -92.5824,-8.20288 -40.2808,-10.59591 -72.1495,-27.2767 -95.8947,-50.19341 -6.3635,-6.14146 -14.0088,-15.30446 -16.5369,-19.81969 -2.606,-4.65421 -2.1236,-4.57518 -14.7342,-2.41432 -39.2232,6.72098 -88.9811,9.24719 -124.9526,6.34384 l -7,-0.56498 3,2.5878 c 15.5297,13.39601 55.2053,33.10753 80.6512,40.06895 2.9418,0.80482 9.3988,2.59543 14.3488,3.97914 8.4421,2.35987 29.8954,6.81719 37.3325,7.7565 2.7469,0.34694 3.614,-0.034 4.9346,-2.16802 4.257,-6.879 7.6598,-8.68929 10.3164,-5.4883 1.1136,1.34178 1.0407,2.35243 -0.4508,6.25 -11.7881,30.80477 -14.7789,46.84109 -14.5751,78.14939 0.1758,27.00918 3.0376,42.76657 11.2603,62 9.0642,21.20186 22.0922,36.61456 37.0416,43.82153 16.8804,8.13795 33.0433,11.13979 57.6405,10.7052 8.525,-0.15062 17.975,-0.8362 21,-1.5235 z m -19.1292,-16.51615 c -5.0711,-1.61816 -11.379,-7.67938 -12.4555,-11.96844 -2.2884,-9.11759 7.0337,-19.43095 17.6228,-19.49668 8.5833,-0.0533 18.9619,9.29285 18.9619,17.07565 0,4.84981 -3.8018,11.23139 -7.9773,13.39066 -4.3999,2.27524 -10.8933,2.67678 -16.1519,0.99881 z m 14.3662,-9.27965 c 5.998,-5.99797 -3.472,-16.63801 -12.572,-14.12537 -8.2622,2.28129 -9.0996,12.00428 -1.3363,15.51467 4.2158,1.90627 11.3226,1.19637 13.9083,-1.3893 z m -80.0952,1.63374 c -5.0323,-2.4909 -9.8033,-8.51979 -10.7545,-13.58987 -0.7861,-4.19048 2.2591,-11.32288 5.8272,-13.64806 8.485,-5.52944 19.7746,-3.83069 26.6803,4.0146 2.2314,2.53504 4.3259,6.04168 4.6543,7.79253 0.901,4.80274 -2.1079,11.25743 -6.8485,14.69155 -5.1333,3.7185 -12.9436,4.0137 -19.5588,0.73925 z m 16.0184,-7.15958 c 1.0527,-0.64987 2.187,-2.25728 2.5206,-3.57202 1.5868,-6.25424 -4.6162,-12.10957 -12.8287,-12.10957 -6.0246,0 -8.8521,2.39563 -8.8521,7.5 0,7.92376 11.5729,12.8655 19.1602,8.18159 z m 287.3398,0.32968 c 14.9406,-4.63572 28.5706,-15.18591 37.3987,-28.9481 4.8683,-7.58934 6.1349,-10.12988 10.75,-21.56317 8.1218,-20.12048 9.8475,-58.33399 3.7031,-82 -4.5913,-17.68395 -14.6015,-41.89111 -17.8362,-43.13236 -0.7836,-0.3007 -3.1326,0.38301 -5.2202,1.51935 -7.9548,4.33025 -34.2267,14.09689 -50.1064,18.62719 -1.271,0.36261 -2.8392,1.85776 -3.4848,3.32255 -0.6457,1.4648 -3.3006,5.77226 -5.8999,9.57215 -6.8169,10.77694 -12.3668,16.57823 -17.3918,21.75392 -5.7916,6.03946 -24.6813,21.59311 -34.5206,28.42393 -9.8295,6.82403 -9.5962,6.02516 -5.5215,18.91327 1.3911,4.4 3.4618,14.50344 4.6016,22.45208 4.234,29.52593 11.2678,43.14801 25.6884,49.74998 7.8452,3.59166 13.4315,4.23396 33.3396,3.83332 14.4631,-0.29105 18.7147,-0.72908 24.5,-2.52411 z m -50.1848,-18.10204 c -4.1533,-1.21622 -8.8553,-5.98566 -10.3419,-10.49019 -0.9857,-2.98651 -0.8932,-4.3598 0.5558,-8.25094 2.1074,-5.65946 4.6093,-8.55757 10.2539,-11.87765 3.6762,-2.1623 5.1983,-2.46095 10.7429,-2.1079 5.661,0.36046 6.8762,0.8149 9.8267,3.67463 4.4911,4.35291 6.1236,9.82116 4.5251,15.15668 -1.2974,4.33035 -6.3226,10.14659 -10.6743,12.35471 -3.7421,1.89876 -11.0743,2.65751 -14.8882,1.54066 z m 9.8697,-7.79836 c 3.4828,-1.33762 7.6497,-5.6038 8.4024,-8.60269 1.2025,-4.79112 -3.1301,-9.50818 -8.7332,-9.50818 -5.8604,0 -12.8541,6.64499 -12.8541,12.21305 0,5.06537 7.0921,8.23779 13.1849,5.89782 z m -448.9322,24.42343 c 17.6497,-3.74018 27.5911,-17.74449 32.785,-46.18362 1.1903,-6.51788 2.3685,-12.97568 2.6181,-14.35068 1.1394,-6.27726 5.9749,-20.32287 9.8921,-28.73391 l 4.3005,-9.23392 -9.1742,-7.65939 c -11.2969,-9.43156 -20.6814,-18.22313 -28.3286,-26.53863 -10.0824,-11.87822 -13.9303,-16.62751 -21.7885,-30.18358 -7.0661,-13.13653 -15.55713,-41.27739 -15.55713,-51.55928 0,-4.31777 -0.0289,-4.33896 -7.5,-5.50178 -2.5859,-0.40248 -17.89377,-4.60332 -22.58333,-6.1974 -0.89965,-0.3058 -1.62408,0.0331 -1.6777,0.78484 -0.16081,2.2548 -7.11643,20.81833 -11.73652,31.32305 -6.74278,15.33107 -12.50245,29.297 -12.50245,30.31566 0,0.5047 -0.85505,3.11514 -1.90011,5.80099 -1.898,4.87794 -5.69352,17.73219 -6.61675,22.40884 -0.26867,1.36098 -1.25789,6.29951 -2.19826,10.97451 -1.25675,6.24789 -1.71623,13.66661 -1.7342,28 -0.0311,24.84331 1.50115,32.49911 10.70796,53.5 10.3417,23.58961 28.65501,38.83769 51.74136,43.08103 9.08188,1.66928 23.25493,1.64809 31.25273,-0.0467 z m -38.34293,-21.85139 c -8.97721,-3.34404 -15.70969,-12.36635 -14.55187,-19.50118 1.57725,-9.71943 11.65739,-15.1396 22.65066,-12.17942 6.28197,1.69156 13.49834,9.01091 14.43974,14.64577 1.0674,6.38905 -1.0608,12.06712 -5.66504,15.11403 -4.56797,3.02294 -11.72701,3.83789 -16.87349,1.9208 z m 12.74306,-8.15232 c 3.00016,-2.10139 3.37126,-4.76084 1.30753,-9.37032 -2.78148,-6.21264 -11.23458,-9.6212 -16.76622,-6.76068 -6.50749,3.36516 -5.44459,11.03765 2.17254,15.68235 3.73064,2.27483 10.35934,2.49867 13.28615,0.44865 z m 151.35097,-56.28059 c 0.011,-10.38192 7.6247,-40.58043 14.8422,-58.86642 l 2.0195,-5.11642 -11.6828,-2.22238 c -6.4255,-1.22231 -12.8077,-2.43371 -14.1827,-2.692 -6.4653,-1.21447 -28.2406,-7.47206 -39,-11.20745 -17.4732,-6.06625 -35.9862,-14.50469 -50.0118,-22.79591 -12.2875,-7.26375 -26.4014,-18.31396 -28.449,-22.27353 -0.8416,-1.6276 -2.3149,-2.92799 -3.283,-2.89785 -0.9659,0.0301 -4.2962,-0.27905 -7.4005,-0.68694 l -5.6443,-0.74162 0.8398,4.49515 c 3.5245,18.86601 10.0717,36.56124 18.7794,50.75537 5.0014,8.15265 18.3428,22.69193 28.1694,30.69865 22.5501,18.37379 59.1586,37.82147 84.5,44.88927 10.7428,2.99619 10.4993,3.0272 10.5038,-1.33792 z m 248.601,-73.27368 c 39.0931,-3.10339 84.5875,-12.24652 115.8952,-23.29178 21.7387,-7.66938 45.7545,-20.34251 61,-32.18965 21.354,-16.59409 38.8103,-41.6151 41.9344,-60.10703 1.3743,-8.13433 -2.8132,-24.7825 -8.831,-35.10883 l -3.3677,-5.77903 -0.5519,-23 c -0.6955,-28.99258 -2.4202,-40.17722 -9.7916,-63.5 -3.1105,-9.84141 -14.6613,-34.75611 -20.1673,-43.5 -6.6749,-10.60032 -18.4715,-25.36383 -26.9476,-33.72506 -28.4842,-28.09812 -72.0408,-46.32279 -121.4382,-50.81135 -11.4918,-1.04423 -30.2688,-0.77268 -36.8391,0.53276 -1.1,0.21856 -4.925,0.64041 -8.5,0.93746 -13.3496,1.10921 -36.8755,6.18028 -51.4076,11.08107 -12.168,4.10352 -15.5263,5.41961 -25.527,10.00374 -40.3494,18.49549 -70.782,43.43557 -92.7956,76.04758 -4.467,6.61774 -13.8409,24.75424 -17.2923,33.45713 -11.8396,29.85426 -18.1084,72.95083 -16.0207,110.13893 1.5263,27.18698 6.5311,42.18612 20.6405,61.85843 18.5252,25.82922 48.0955,44.30931 90.9027,56.81005 28.9106,8.4426 75.7225,12.79561 109.1048,10.14558 z m 40.7941,-78.56318 c -6.4506,-3.4062 -9.3989,-6.24582 -9.3989,-9.05227 0,-1.25978 0.879,-2.76097 1.9535,-3.33598 1.5867,-0.84917 2.5724,-0.50716 5.25,1.82157 8.5131,7.40401 12.6604,7.01878 22.3864,-2.07945 3.3907,-3.17186 6.8755,-5.76701 7.7441,-5.76701 0.8685,0 3.5111,1.80448 5.8725,4.00997 4.8292,4.51028 9.2672,6.20755 12.2935,4.70147 1.1,-0.54744 3.9024,-2.73146 6.2276,-4.85339 4.5305,-4.13435 6.3467,-4.67831 8.193,-2.4537 1.9877,2.39503 0.1308,6.2002 -5.1037,10.4582 -7.8646,6.39759 -14.5971,6.7054 -23.1243,1.05723 l -4.5949,-3.04353 -5.2989,4.20525 c -9.5624,7.58885 -14.4438,8.53281 -22.3999,4.33164 z m -120.8963,-26.02945 c -11.9824,-2.89638 -24.5909,-12.72068 -31.0175,-24.16822 -1.456,-2.59351 -3.818,-8.09047 -5.2489,-12.21547 -2.3228,-6.69606 -2.6075,-9.05429 -2.6564,-22 -0.062,-16.43167 1.5508,-23.59188 8.2213,-36.5 4.7406,-9.17375 15.4938,-20.05171 23.9794,-24.2578 35.9612,-17.82495 72.4001,12.42644 72.2933,60.01755 -0.034,15.24226 -3.0724,26.24916 -10.1584,36.80226 -13.0027,19.36489 -33.4949,27.61967 -55.4128,22.32168 z m 35.6332,-68.17713 c 7.4503,-3.87981 11.8642,-11.1203 11.8642,-19.46198 0,-6.54128 -1.6414,-10.56135 -6.362,-15.58221 -9.0662,-9.64283 -23.646,-9.57379 -31.0605,0.14707 -7.2404,9.49263 -7.2157,21.0802 0.063,29.58374 7.0413,8.22618 16.2261,10.14035 25.4953,5.31338 z m 199.9749,35.90114 c -5.1514,-2.08973 -12.1308,-8.57106 -15.5583,-14.44814 -1.3342,-2.28776 -3.3601,-7.53456 -4.502,-11.65956 -1.7799,-6.42981 -2.0129,-9.49769 -1.6323,-21.5 0.8809,-27.77703 8.4372,-42.41834 24.0665,-46.63175 13.4665,-3.63034 29.3586,5.58349 36.9108,21.39984 7.5459,15.80318 7.6487,37.75356 0.2529,53.97034 -7.5848,16.6311 -24.8008,24.84741 -39.5376,18.86927 z m 14.5595,-54.26167 c 7.6714,-4.62326 9.8373,-16.08442 4.446,-23.5269 -8.4649,-11.68547 -25.039,-8.65277 -29.1533,5.33441 -1.6925,5.75398 -0.5136,10.73118 3.6274,15.31479 5.4861,6.07244 13.878,7.21805 21.0799,2.8777 z m 0.9929,-61.66575 c -0.9057,-1.00084 -2.5344,-4.39949 -3.6192,-7.55255 -3.0003,-8.72065 -9.2437,-20.61974 -15.9778,-30.45177 -6.402,-9.34724 -7.0161,-11.14264 -4.5199,-13.21429 2.3294,-1.93328 5.9233,1.21738 12.6979,11.13186 9.6677,14.14849 18.5893,34.46499 17.0137,38.74429 -1.2487,3.39178 -3.2956,3.88292 -5.5947,1.34246 z m -452.6631,182.41433 c 6.875,-0.81452 15.2,-1.76104 18.5,-2.10337 3.3,-0.34234 11.9013,-1.55092 19.1141,-2.68573 l 13.1142,-2.06331 -2.4739,-6.6211 c -1.3606,-3.64161 -2.8466,-8.4211 -3.3022,-10.6211 -0.4556,-2.2 -1.5291,-6.925 -2.3855,-10.5 -0.8565,-3.575 -1.8571,-12.52559 -2.2237,-19.8902 l -0.6665,-13.3902 -9.5883,0.63503 c -5.2735,0.34926 -20.9507,0.63735 -34.8382,0.6402 -24.1514,0.005 -25.25,0.088 -25.25,1.90793 0,1.97359 -6.5706,6.84436 -14.9748,11.10087 -11.5021,5.82551 -22.3404,14.89006 -30.3629,25.39391 -2.9612,3.87707 -5.1878,4.30953 -7.0406,1.36741 -3.2856,-5.21732 12.5238,-21.26816 32.1905,-32.68209 9.8595,-5.72215 10.7314,-9.02881 2.3908,-9.06755 -3.6917,-0.0171 -22.0174,-3.11204 -35.703,-6.02964 -21.0937,-4.4969 -49.27434,-15.53795 -61.69911,-24.17342 -3.33461,-2.31763 -5.86883,-1.81549 -15.18019,3.00784 -8.27696,4.28752 -16.17017,11.28754 -21.09631,18.70908 -3.76721,5.67555 -6.19944,6.77226 -8.60119,3.87833 -1.11589,-1.34457 -0.94034,-2.31167 1.12756,-6.21183 5.5004,-10.37403 17.41921,-20.53026 30.30185,-25.82077 6.62655,-2.72132 6.68659,-2.78011 4.78338,-4.68333 -1.90322,-1.90321 -2.08507,-1.90207 -14.48567,0.0908 -19.84945,3.18998 -29.96626,8.89243 -35.76613,20.15995 -3.48434,6.7691 -3.89079,20.02676 -0.86872,28.33596 8.39553,23.08353 27.50039,39.28797 58.9845,50.02974 10.93118,3.7295 28.59999,8.24297 35.50003,9.06842 2.2,0.26318 7.15,1.01159 11,1.66313 3.85,0.65154 11.95,1.54767 18,1.99139 16.1931,1.18764 66.894,0.29408 81.5,-1.43637 z m 5.5447,-75.17122 c 2.0938,-0.56247 4.0587,-6.4441 6.4556,-19.3242 1.1375,-6.11209 2.3994,-8.09919 5.1436,-8.09919 3.5423,0 4.3699,4.19409 2.5232,12.78744 -0.9169,4.26704 -2.0781,13.06258 -2.0781,13.49177 0,0.42918 4.7142,0.6439 10.4761,0.47715 8.6408,-0.25007 10.5476,-0.0404 10.884,1.19681 0.2243,0.825 0.8881,-6.82817 0.9726,-10.95317 0.085,-4.125 0.3827,-9.3 0.6624,-11.5 4.0751,-32.05047 7.0152,-49.391 9.9185,-58.5 3.3095,-10.56111 0.4028,-23.03496 -9.3463,-28.792 -6.6797,-3.75416 -14.1306,-5.07109 -28.8572,-5.10041 -26.6378,-0.053 -45.6344,7.26587 -62.3791,24.03316 -10.7081,10.7225 -22.2573,28.59344 -27.6981,42.85925 -1.637,6.60605 -10.3279,32.00055 -10.043,35.11263 0.3149,3.2544 0.4659,3.35189 7.8211,5.04988 21.1899,4.8918 42.2723,7.09476 73,7.62797 5.775,0.10022 11.4201,-0.065 12.5447,-0.36709 z m -100.6383,-19.67339 c 7.4471,-25.69557 7.0452,-24.6063 15.5988,-42.26777 6.007,-12.40322 17.7154,-28.79659 25.6918,-35.97219 12.0375,-10.82907 26.9525,-18.72468 42.448,-22.47101 8.0599,-1.94861 11.1452,-2.16245 26,-1.80202 14.1145,0.34247 17.9436,0.7753 23.5506,2.66203 7.523,2.53149 14.8017,8.23968 17.693,13.87544 l 1.8168,3.54123 2.7512,-5.90786 c 5.3923,-12.47857 13.1842,-25.70111 20.0434,-35.86747 7.2903,-10.78758 20.1096,-25.21245 32.2015,-36.23468 l 8.9895,-8.1943 0.6308,-9.3057 c 0.6954,-10.25839 4.4902,-23.39651 8.9619,-31.02686 12.6777,-21.63294 38.3,-37.91321 69.7163,-44.29749 12.48,-2.53615 22.0345,-1.59663 32.18,3.16434 4.3162,2.02546 8.3642,4.30508 8.9955,5.06582 1.4216,1.71294 2.7856,0.0161 2.8092,-3.49475 0.024,-3.65198 4.5619,-11.61149 8.6809,-15.22805 2.0868,-1.83219 7.1599,-4.88637 11.2737,-6.78706 l 7.4797,-3.45581 -2.9595,-2.36029 c -3.8718,-3.08784 -11.1841,-6.86983 -20.368,-10.53454 -7.722,-3.08135 -9.0393,-2.87252 -9.0762,1.43883 -0.045,5.27866 -6.4316,12.94346 -13.9097,16.69412 -13.4465,6.74408 -51.4405,12.99077 -79.1118,13.00697 -33.0181,0.0193 -55.6684,-5.10772 -62.0293,-14.04071 -2.7458,-3.85609 -4.9645,-11.05565 -4.9645,-16.10915 0,-2.40607 -0.467,-3.84116 -1.25,-3.8413 -2.4831,-4.5e-4 -19.4673,5.34243 -29.25,9.20147 -12.6047,4.97222 -25.6491,11.50452 -34.8182,17.43598 l -7.1188,4.60511 4.6033,2.33944 c 5.31,2.69866 10.4665,8.73068 12.602,14.74183 4.583,12.90057 1.2514,38.59254 -7.649,58.98556 -7.8764,18.04675 -27.8364,38.46352 -46.3205,47.38054 -12.5694,6.06368 -28.1618,10.3103 -37.8566,10.3103 -16.1299,0 -29.529,-7.96812 -35.15,-20.90286 l -2.3479,-5.40285 -5.7188,12.08844 c -5.02568,10.62333 -12.72553,28.70892 -12.72553,29.89007 0,0.2318 1.6875,-0.91315 3.75,-2.54431 2.0625,-1.63117 6.19418,-3.67738 9.18153,-4.54713 19.2135,-5.59396 33.3483,5.1519 34.809,26.46334 0.8521,12.43245 -0.3476,16.49965 -12.8184,43.4553 -10.0717,21.76997 -13.1126,29.36071 -15.4235,38.5 -0.904,3.575 -2.0039,7.91377 -2.4443,9.64172 -0.7423,2.91259 -0.5729,3.21509 2.3225,4.14791 5.9818,1.92716 6.2823,1.71436 8.5296,-6.03963 z m 140.4717,-128.10852 c -5.7866,-1.902 -8.8716,-4.37483 -12.6253,-10.12013 l -3.2528,-4.97865 0.02,-19.52135 c 0.021,-20.55279 0.7082,-25.63015 6.9712,-51.52135 5.9832,-24.73485 11.9773,-34.07305 26.0086,-40.51899 7.295,-3.3513 24.2871,-3.8225 31.7636,-0.88083 18.171,7.14945 25.5635,24.00596 21.2946,48.55635 -2.9894,17.1923 -8.5912,32.37385 -18.7606,50.84347 -7.5583,13.7273 -15.6362,21.88698 -26.3665,26.6335 -6.0268,2.66595 -19.1303,3.45468 -25.0529,1.50798 z m 24.409,-10.03358 c 8.9579,-4.53932 16.5633,-14.3323 25.7122,-33.1079 11.5241,-23.64982 15.28,-43.06171 11.5898,-59.89957 -1.0689,-4.8769 -2.1236,-6.73015 -6.0846,-10.6911 -6.4009,-6.40096 -12.9796,-8.40135 -25.0562,-7.61894 -14.8049,0.95917 -22.126,6.82126 -27.6158,22.11237 -2.1413,5.96408 -6.2118,21.82367 -6.7973,26.48357 -0.2773,2.20726 -0.9362,5.9483 -1.4642,8.31343 -3.3345,14.93765 -4.372,43.39593 -1.7648,48.40889 2.0124,3.86932 5.7942,7.28907 9.3131,8.42136 4.9084,1.57943 16.8448,0.27523 22.1678,-2.42211 z m -182.1997,130.80228 c 3.7245,-13.26971 9.4241,-26.6497 14.8251,-37.77635 14.8096,-30.46437 16.2264,-36.10784 13.0663,-52.04898 -0.7956,-4.01394 -3.841,-8.02752 -8.0776,-10.6459 -2.941,-1.81762 -4.5551,-2.1121 -9.2457,-1.68677 -10.80361,0.97964 -20.58917,7.74152 -25.6348,17.71384 -8.89357,20.37448 -15.02618,47.98162 -15.52073,67.36548 0,3.16988 0.66761,3.98966 7.25,8.90254 19.01528,14.19239 20.80091,14.81798 23.33743,8.17614 z m 62.9126,-128.38091 c 8.201,-2.13613 20.3172,-7.7896 28.4303,-13.26573 7.29,-4.92048 20.1916,-18.68685 25.5099,-27.21977 5.0849,-8.15837 10.8688,-22.11874 12.0331,-29.04377 2.9534,-17.56691 3.2175,-24.88666 1.1463,-31.76865 -2.8468,-9.45917 -7.5305,-13.20623 -20.9809,-16.78491 -9.0598,-2.4105 -16.0322,-2.42046 -21.1387,-0.0302 -10.1243,4.73901 -30.9516,24.78506 -45.2823,43.58375 -12.5965,16.52382 -24.829,35.88217 -27.7938,43.98477 -1.5059,4.1157 0.4224,13.8709 3.9225,19.84334 7.5743,12.92468 22.1007,16.44532 44.1536,10.70116 z m 196.5,-50.43344 c 5.225,-3.08613 14.675,-8.25146 21,-11.47852 10.4371,-5.32508 14.6,-7.12324 30.5,-13.17458 9.1932,-3.49884 29.8929,-8.95687 40,-10.54711 5.5,-0.86536 10.3426,-1.8985 10.7614,-2.29588 1.169,-1.10937 -4.8184,-9.49584 -9.543,-13.36669 -12.4607,-10.20891 -27.6428,-11.98391 -48.7184,-5.69588 -21.463,6.4036 -37.5804,16.82537 -48.5402,31.38688 -8.3593,11.10633 -13.8798,28.12229 -9.8545,30.37494 2.6152,1.46353 3.8842,1.00482 14.3947,-5.20316 z m 203.5,-61.10999 -6,-5.25622 -5.75,1.05239 c -3.1625,0.57882 -5.75,1.36179 -5.75,1.73993 0,1.22562 -12.117,-3.19666 -18.2369,-6.65582 -8.6981,-5.07681 -14.5345,-8.22506 -23.1235,-10.78723 -5.4773,-1.58787 -6.3596,-1.59101 -13.5,-0.048 -14.8299,3.20475 -24.3604,11.38411 -25.6931,22.05067 -0.9295,7.43991 0.6562,12.4234 5.2313,16.44037 l 3.653,3.20744 8.0846,-0.86469 c 11.8246,-1.26472 42.5387,-0.96547 54.0846,0.52695 10.3103,1.33271 24.7538,4.53751 37,8.20974 14.8629,4.7835 16.4617,5.25067 21.8065,7.85857 -11.5696,-15.2524 -20.3321,-27.28552 -31.8065,-37.4741 z m -15.1384,-11.98584 c -6.3811,-5.67173 -12.2728,-10.22539 -18.3616,-14.73389 -16.975,-12.54702 -46.4481,-26.75235 -70,-33.738327 -4.125,-1.223559 -8.8105,-2.632385 -10.4122,-3.130724 -3.7273,-1.159699 -4.0469,-0.759674 -1.7576,2.200285 1.0221,1.321464 2.6251,4.436992 3.5623,6.923395 1.6973,4.502681 1.7365,4.529831 9.8345,6.799031 10.5028,2.94307 20.7433,8.11624 28.273,14.28255 3.3,2.70248 6.5128,4.71822 7.1395,4.47942 2.0195,-0.76946 14.6951,2.60436 20.3605,5.41925 3.025,1.50301 9.0767,4.60656 13.4482,6.89679 8.89,4.23927 12.2804,5.93045 15.2704,6.02327 2.4681,0.0605 3.0844,-0.27083 2.643,-1.42105 z m -327.5878,-8.51153 c 20.3903,-13.43297 43.4734,-23.36117 66.4762,-28.59185 4.2625,-0.96926 7.75,-2.26899 7.75,-2.88829 0,-0.61929 1.562,-3.719903 3.471,-6.890252 l 3.4711,-5.764271 -3.2211,0.698649 c -4.8636,1.054923 -23.4902,6.988935 -29.721,9.46843 -3.025,1.203774 -7.3,2.846314 -9.5,3.650084 -12.1572,4.44161 -40.4839,19.76362 -55.1467,29.82903 l -5.827,4 5.9869,1.141 c 3.2927,0.62756 6.2452,1.19006 6.5611,1.25 0.316,0.06 4.6807,-2.59619 9.6995,-5.90253 z m 166.8808,2.47797 c 25.6318,-2.83905 46.0136,-8.06704 52.5605,-13.48188 2.2522,-1.8627 4.114,-4.51716 4.728,-6.74063 2.0557,-7.44515 -1.5577,-17.637372 -8.7021,-24.545916 -3.4184,-3.305501 -5.0947,-4.043896 -12.8364,-5.654419 -16.2034,-3.370802 -41.2921,-5.373808 -58.9046,-4.702776 -18.0957,0.68944 -37.5935,2.903849 -45.0404,5.115341 -7.7809,2.310662 -14.2412,10.053272 -16.8776,20.22741 -2.8146,10.86185 -1.6738,17.14389 4.0978,22.56475 7.8088,7.33431 47.7676,10.89625 80.9748,7.21812 z"
       id="path330"
       sodipodi:nodetypes="cssscsscsssssssssscssssssssssssssscssssssscssssssscsssccssssssssssssssssssssscssssssssssssssssssssssssssssssssssssssssssccsssssssssssssssssssssssscsccssssssssssssssssssssssssscscssssssscsssscssssscssssssssssssssssssssssssssscsssssssssssssssssssssssssssssssssssssssscsssscssssssssssssssssssssssssssssssssccccssccsssssssssscccscssssscsscsssssssssscsssssscsssssssssssscssssssssssssssssssssccsssccscssssssssssssssssssssssccssccssscsscccccsssssssscccsssscsssscsssssssssssss" />
    <ellipse
       style="fill:#fcb89b;fill-opacity:1;stroke-width:3.89263;stroke-linecap:round;stroke-linejoin:bevel"
       id="path10394"
       cx="414.44238"
       cy="488.7778"
       rx="40.701725"
       ry="29.910599" />
    <ellipse
       style="fill:#fcb89b;fill-opacity:1;stroke-width:4.41375;stroke-linecap:round;stroke-linejoin:bevel"
       id="path10396"
       cx="736.69653"
       cy="449.99875"
       rx="23.552599"
       ry="19.461496" />
    <path
       id="path11344"
       style="fill:#000000;fill-opacity:0.225387;stroke:none;stroke-width:1px;stroke-linecap:butt;stroke-linejoin:miter;stroke-opacity:1"
       d="m 54.07336,406.2185 c -19.32535,5.96458 -9.06656,23.97057 -2.42578,39.83008 37.68603,40.48957 92.06776,57.59588 136.4648,60.98828 36.8177,2.69045 110.033,6.12453 130.3028,-9.07227 20.2698,-15.19679 7.8468,-7.04692 7.4062,-20.0625 -0.4406,-13.01557 -4.8433,-55.54189 -23.209,-51.78906 -15.4194,1.38686 -0.6086,47.75509 -1.0136,55.70898 -30.5082,13.34593 -156.40416,10.43002 -197.61917,-11.23828 -41.215,-21.6683 -45.54475,-65.28415 -49.90625,-64.36523 z m 47.96484,81.96094 -10.84765,40.0957 c 39.01981,5.62802 124.00853,123.45093 100.89843,163.60742 -23.1102,40.15648 -76.88946,20.22585 -112.07031,-4.47461 l 33.09766,44.27344 48.98825,7.7793 42.0567,-21.08789 18.3437,-58.97266 1.5723,-37.73633 -52.8438,-46.31641 -19.748,-43.09374 -3.96485,-29.17188 z m 239.95118,33.9375 -8.2324,17.50976 c 45.4891,35.97181 73.2385,37.01478 110.6308,42.6543 l -12.7402,-15.32617 z m 360.0586,16.57617 -72.9375,23.59765 -10.9844,31.56836 -62.0566,46.54297 c 9.5819,83.6529 39.5666,105.55195 122.7168,88.88281 l 34.3457,-44.9414 c -16.8473,17.98474 -63.6007,47.82732 -125.4004,24.26953 -3.0108,-8.18649 -8.9133,-25.6623 -7.6992,-33.8125 7.5624,-50.76606 138.8574,-66.54297 138.8574,-66.54297 z m -371.4883,194.06055 44.6875,37.64453 71.6152,1.41797 24.7051,-35.33204 c -19.2264,11.74526 -70.2598,22.35061 -141.0078,-3.73046 z" />
    <path
       id="path13112"
       style="fill:#000000;fill-opacity:0.254826;stroke:none;stroke-width:1px;stroke-linecap:butt;stroke-linejoin:miter;stroke-opacity:1"
       d="m 529.51088,88.146237 c 30.0803,34.158023 76.9396,76.545003 72.2461,100.880853 l 60.6621,18.48633 -2.8027,-14.0918 -60.1739,-62.80664 z M 153.44448,228.05639 c -8.56785,0.15812 -6.79668,8.45186 -16.36526,30.85156 -10.20648,23.89302 -39.14178,91.95451 -32.36719,115.68164 6.7746,23.72714 8.82803,10.93571 20.58985,18.86719 11.76182,7.93148 30.3286,18.66008 51.625,24.60938 21.2964,5.94929 52.3249,6.4092 75.1035,7.5332 22.7786,1.124 54.0956,-2.23229 61.3574,-0.084 2.5517,-34.07596 10.4041,-73.74566 5.6602,-101.88086 -28.4439,10.12634 -12.1696,67.56596 -29.9727,89.56836 -26.8733,18.91451 -68.8012,12.78797 -97.7187,-3.9375 -28.9175,-16.72546 -52.38518,-57.62208 -54.72072,-86.83398 -2.33554,-29.2119 24.45122,-49.38679 24.84962,-66.375 0.3983,-16.9882 4.5287,-26.9639 -6.1836,-27.92383 -0.6695,-0.06 -1.2862,-0.0867 -1.8574,-0.0762 z" />
  </g>
</svg>
